<svg width="161" height="46" viewBox="0 0 161 46" fill="none" xmlns="http://www.w3.org/2000/svg">
<path d="M53.0118 33.8317C55.2397 33.8317 56.9671 32.6768 58.1941 30.3671C59.421 28.0574 60.0345 25.6369 60.0345 23.1057C60.0345 20.5428 59.5663 18.502 58.63 16.9833C57.6936 15.4646 56.4828 14.7052 54.9975 14.7052H54.7069L52.7212 33.8317H53.0118ZM52.8181 38.6252H43.3254L40.4194 9.86426H54.7069C61.9072 9.86426 66.8634 11.7943 69.5756 15.6544C70.9963 17.711 71.7067 20.1473 71.7067 22.9633C71.7067 33.4046 65.4105 38.6252 52.8181 38.6252Z" fill="#1677FF"/>
<path d="M76.3274 38.6252L73.9058 9.86426H92.0194L97.4923 23.96L102.965 9.86426H119.432L117.01 38.6252H107.082L105.338 21.492L98.6547 38.6252H90.8086L84.125 21.492L82.672 38.6252H76.3274Z" fill="black"/>
<path d="M16.3912 28.2623C16.3912 30.5071 16.7592 32.0343 17.4952 32.8439C18.2312 33.6167 19.1512 34.0031 20.2552 34.0031C21.9848 34.0031 23.7328 33.7087 25.4992 33.1199L26.3272 32.8439L28.7008 37.5911C28.3696 37.8855 27.8728 38.2719 27.2104 38.7503C26.548 39.1919 25.0576 39.7991 22.7392 40.5719C20.4576 41.3079 18.084 41.6759 15.6184 41.6759C13.1896 41.6759 11.1472 41.3263 9.49116 40.6271C7.83516 39.9279 6.56556 39.1183 5.68236 38.1983C4.79916 37.2415 4.08156 35.9903 3.52956 34.4447C2.97756 32.8623 2.60956 31.5191 2.42556 30.4151C2.27836 29.3111 2.14956 27.9311 2.03916 26.2751L0.714355 7.6727H25.5544L27.1 14.2967L17.716 15.1247L17.164 20.4791H24.5608L25.6648 25.6679L16.3912 27.9863V28.2623Z" fill="black"/>
<path d="M156.314 21.7487C157.528 22.4847 158.54 23.5335 159.35 24.8951C160.196 26.2567 160.619 28.0783 160.619 30.3599C160.619 32.6047 159.902 34.6471 158.467 36.4871C155.817 39.9463 151.787 41.6759 146.378 41.6759C144.023 41.6759 141.686 41.3447 139.367 40.6823C137.086 39.9831 135.393 39.2839 134.289 38.5847L132.633 37.5911L135.007 32.8439C137.656 34.1319 140.048 34.7759 142.183 34.7759C144.317 34.7759 145.384 34.0951 145.384 32.7335C145.384 31.9607 144.961 31.2431 144.115 30.5807C143.305 29.8815 142.293 29.2191 141.079 28.5935C139.901 27.9679 138.705 27.2503 137.491 26.4407C136.313 25.5943 135.301 24.4351 134.455 22.9631C133.645 21.4543 133.24 19.7063 133.24 17.7191C133.24 14.1863 134.583 11.4999 137.27 9.6599C139.993 7.8199 143.268 6.8999 147.095 6.8999C149.377 6.8999 151.511 7.1759 153.499 7.7279C155.523 8.2799 156.958 8.8319 157.804 9.3839L159.129 10.2119L156.976 14.9039C155.099 14.0943 153.204 13.6895 151.291 13.6895C149.414 13.6895 148.475 14.4071 148.475 15.8423C148.475 16.6151 148.88 17.3143 149.69 17.9399C150.536 18.5655 151.548 19.1727 152.726 19.7615C153.94 20.3135 155.136 20.9759 156.314 21.7487Z" fill="black"/>
<path d="M35.2147 0.5H124.915C127.179 0.5 129.015 2.33563 129.015 4.6V41.4C129.015 43.6644 127.179 45.5 124.915 45.5H35.2147C32.9504 45.5 31.1147 43.6644 31.1147 41.4V4.6C31.1147 2.33563 32.9504 0.5 35.2147 0.5Z" stroke="#1677FF"/>
</svg>
